<?xml version="1.0" encoding="UTF-8" standalone="no"?>
<svg
   xmlns:dc="http://purl.org/dc/elements/1.1/"
   xmlns:cc="http://creativecommons.org/ns#"
   xmlns:rdf="http://www.w3.org/1999/02/22-rdf-syntax-ns#"
   xmlns:svg="http://www.w3.org/2000/svg"
   xmlns="http://www.w3.org/2000/svg"
   xmlns:sodipodi="http://sodipodi.sourceforge.net/DTD/sodipodi-0.dtd"
   xmlns:inkscape="http://www.inkscape.org/namespaces/inkscape"
   id="Warstwa_1"
   data-name="Warstwa 1"
   viewBox="0 0 1610 1143"
   version="1.1"
   sodipodi:docname="universite_paris_saclay.svg"
   inkscape:version="0.92.3 (2405546, 2018-03-11)"
   width="1610"
   height="1143">
  <metadata
     id="metadata146">
    <rdf:RDF>
      <cc:Work
         rdf:about="">
        <dc:format>image/svg+xml</dc:format>
        <dc:type
           rdf:resource="http://purl.org/dc/dcmitype/StillImage" />
        <dc:title />
      </cc:Work>
    </rdf:RDF>
  </metadata>
  <sodipodi:namedview
     pagecolor="#ffffff"
     bordercolor="#666666"
     borderopacity="1"
     objecttolerance="10"
     gridtolerance="10"
     guidetolerance="10"
     inkscape:pageopacity="0"
     inkscape:pageshadow="2"
     inkscape:window-width="1916"
     inkscape:window-height="1033"
     id="namedview144"
     showgrid="false"
     inkscape:zoom="0.58377268"
     inkscape:cx="832.50802"
     inkscape:cy="481.69103"
     inkscape:window-x="0"
     inkscape:window-y="22"
     inkscape:window-maximized="0"
     inkscape:current-layer="Warstwa_1" />
  <defs
     id="defs71">
    <style
       id="style69">.cls-1{fill:#fff;}</style>
  </defs>
  <path
     style="fill:#2e3440;stroke-width:1"
     d="m 290.41055,1079.8831 v -42.6902 h 8.07651 c 4.44209,0 8.07652,1.0749 8.07652,2.3887 0,1.6467 1.38668,1.6467 4.46345,0 2.4549,-1.3138 7.90654,-2.3734 12.11477,-2.3547 29.39931,0.1308 40.7098,40.8075 16.61654,59.7592 -6.68103,5.2553 -21.16359,6.4803 -28.73131,2.4302 -4.163,-2.228 -4.46345,-1.529 -4.46345,10.3841 v 12.7728 h -8.07652 -8.07651 z m 40.21429,4.4537 c 8.88943,-8.8894 6.92711,-24.8541 -3.79468,-30.8721 -5.72619,-3.214 -6.71188,-3.1118 -12.6612,1.3131 -8.57392,6.377 -10.21402,21.3428 -3.11673,28.4401 5.64254,5.6426 14.54032,6.1512 19.57261,1.1189 z m 615.40821,27.0947 4.63027,-11.1416 -11.68088,-29.2787 c -6.42448,-16.1033 -11.68089,-30.3001 -11.68089,-31.5485 0,-1.2484 3.68742,-2.2698 8.19428,-2.2698 9.03616,0 9.90903,1.3219 18.6544,28.2511 2.36699,7.2885 4.82281,13.2555 5.45739,13.26 0.63458,0 4.30273,-9.074 8.15144,-20.1746 6.99473,-20.1742 7.00128,-20.183 15.57614,-20.8989 4.71816,-0.3939 8.57849,-0.036 8.57849,0.7952 0,0.8313 -7.47969,20.1045 -16.62154,42.8294 l -16.62154,41.3181 h -8.63392 -8.63391 z M 367.60946,1096.141 c -7.9394,-7.9394 -7.52523,-18.2131 1.08117,-26.8195 5.84259,-5.8426 8.46734,-6.7453 19.6144,-6.7453 14.09815,0 16.06795,-2.4128 6.88297,-8.431 -5.66463,-3.7116 -6.41362,-3.6922 -13.94258,0.3625 -7.87452,4.2407 -8.00781,4.2333 -12.95689,-0.7158 -4.94655,-4.9465 -4.95173,-5.0391 -0.47978,-8.5711 13.21599,-10.4382 29.99507,-10.9721 40.82867,-1.2993 l 7.53602,6.7285 0.78106,25.5775 0.78106,25.5775 h -8.08838 c -4.44861,0 -8.48416,-1.1873 -8.96788,-2.6385 -0.65986,-1.9795 -2.11064,-1.9795 -5.80953,0 -8.59842,4.6018 -21.01062,3.2242 -27.26031,-3.0255 z m 27.64558,-10.4319 c 8.90218,-3.3846 7.65098,-9.2874 -1.96863,-9.2874 -10.02285,0 -15.18797,1.9804 -15.18797,5.8235 0,5.3696 7.93213,6.9711 17.1566,3.4639 z m 35.91765,-16.2101 v -32.3061 h 17.30682 17.30682 v 8.0765 c 0,7.8842 -0.21977,8.0765 -9.2303,8.0765 h -9.23031 v 24.2296 24.2295 h -8.07651 -8.07652 z m 46.15152,0 v -32.3061 h 8.07652 8.07651 v 32.3061 32.306 h -8.07651 -8.07652 z m 35.19054,27.7162 c -8.63596,-5.2655 -9.11454,-7.0789 -3.26522,-12.3724 3.88416,-3.5151 4.8374,-3.5313 11.52436,-0.1955 4.00948,2.0002 9.63246,3.3041 12.49552,2.8976 8.784,-1.2473 5.8339,-7.0498 -5.55404,-10.9241 -14.67826,-4.9937 -20.39267,-10.6754 -20.39267,-20.276 0,-16.6414 19.48079,-24.616 37.61271,-15.3971 10.09211,5.1313 9.97357,4.8046 4.03745,11.1233 -4.95836,5.2779 -5.63065,5.4056 -10.76099,2.0441 -6.03944,-3.9572 -17.98601,-2.4423 -16.47552,2.0892 0.49283,1.4785 5.86593,3.956 11.94023,5.5056 14.1442,3.6082 22.12841,10.967 22.03184,20.3061 -0.1313,12.6975 -9.36491,19.7946 -25.73515,19.7804 -5.85305,0 -13.05084,-1.8938 -17.45852,-4.5812 z m 140.76214,-0.2908 c -8.9018,-5.7009 -9.03808,-6.5871 -1.82008,-11.8349 5.17264,-3.7608 5.9685,-3.7748 12.17196,-0.2146 7.26547,4.1698 20.09086,2.6866 18.48285,-2.1374 -0.50312,-1.5093 -6.38031,-4.3267 -13.06044,-6.2608 -13.52002,-3.9144 -21.00434,-11.2587 -20.89295,-20.5021 0.19245,-15.9734 19.92303,-23.7446 38.22977,-15.0575 9.02403,4.2822 9.54169,6.189 3.45416,12.7232 -4.1723,4.4784 -4.69095,4.5222 -10.27062,0.8662 -6.71992,-4.403 -14.17988,-3.8364 -14.17988,1.077 0,1.9173 4.04496,4.4994 9.54135,6.0908 14.27003,4.1315 18.58185,7.0499 21.10352,14.2836 3.05578,8.7659 -1.88783,20.5021 -9.9229,23.557 -9.96684,3.7894 -24.68797,2.628 -32.83674,-2.5906 z m 59.78789,1.1864 c -7.3955,-5.18 -9.93712,-13.1053 -6.95042,-21.6729 3.09028,-8.8648 12.49257,-13.8617 26.08242,-13.8617 7.85953,0 10.49868,-0.8825 10.49868,-3.5108 0,-6.425 -9.99581,-8.943 -18.35056,-4.6226 -6.99214,3.6158 -7.72449,3.6076 -11.85775,-0.1329 -6.02328,-5.451 -5.59398,-7.208 3.0943,-12.6642 11.07655,-6.956 30.47987,-5.2159 37.8891,3.3978 4.92377,5.7242 5.37795,8.385 5.37795,31.5069 v 25.2546 h -8.07652 c -4.44208,0 -8.07652,-1.0749 -8.07652,-2.3887 0,-1.6467 -1.38669,-1.6467 -4.46345,0 -6.625,3.5456 -19.17046,2.8948 -25.16723,-1.3055 z m 25.16723,-12.54 c 7.91538,-4.2362 5.42878,-9.1491 -4.63066,-9.1491 -9.54478,0 -12.94848,2.5808 -10.79719,8.187 1.50013,3.9093 9.04221,4.3796 15.42785,0.9621 z m 46.79885,11.4942 c -10.12562,-6.4868 -15.4687,-18.656 -13.98209,-31.845 0.96798,-8.5881 2.93007,-12.1725 10.55801,-19.2877 7.83095,-7.3046 10.9938,-8.738 19.26563,-8.7308 9.55784,0.01 24.8958,6.8701 24.8958,11.1377 0,1.0911 -1.9824,3.7779 -4.40533,5.9706 -4.05506,3.6698 -4.96216,3.6989 -11.40819,0.3655 -17.50237,-9.0508 -31.94699,13.4244 -17.75122,27.6202 6.84462,6.8446 12.57269,7.1657 20.24008,1.1345 l 5.75834,-4.5295 5.33064,5.6742 c 2.93185,3.1209 4.89389,6.0043 4.36005,6.4077 -0.53383,0.4035 -3.96626,3.0036 -7.62762,5.7781 -8.73646,6.6203 -25.15408,6.7622 -35.2341,0.3045 z m 54.5828,-37.8039 v -42.8364 h 8.12858 8.12857 l -0.62895,42.1133 -0.62895,42.1132 -7.49963,0.7231 -7.49962,0.7231 z m 33.71528,37.3519 c -6.38545,-5.745 -7.79421,-11.2486 -5.30535,-20.7262 2.12046,-8.0748 12.23108,-13.3106 25.70352,-13.3106 7.85953,0 10.49868,-0.8825 10.49868,-3.5108 0,-6.425 -9.99582,-8.943 -18.35056,-4.6226 -6.99214,3.6158 -7.72449,3.6076 -11.85775,-0.1329 -6.02329,-5.451 -5.59398,-7.208 3.09429,-12.6642 11.07655,-6.956 30.47988,-5.2159 37.88911,3.3978 4.92377,5.7242 5.37795,8.385 5.37795,31.5069 v 25.2546 h -8.07652 c -4.44208,0 -8.07652,-1.0749 -8.07652,-2.3887 0,-1.6467 -1.38669,-1.6467 -4.46345,0 -7.72463,4.1341 -20.19221,2.8119 -26.4334,-2.8033 z m 26.4334,-11.0422 c 7.91538,-4.2362 5.42878,-9.1491 -4.63066,-9.1491 -9.54478,0 -12.94848,2.5808 -10.79719,8.187 1.50013,3.9093 9.04221,4.3796 15.42785,0.9621 z M 569.62726,1069.499 v -6.9228 h 29.99849 29.99849 v 6.9228 6.9227 h -29.99849 -29.99849 z m 438.43944,0 v -6.9228 h 156.9152 156.9152 v 6.9228 6.9227 h -156.9152 -156.9152 z m -527.96504,-40.544 c -6.3048,-4.416 -6.50765,-10.5275 -0.529,-15.9381 4.30116,-3.8925 4.88996,-3.9044 10.52548,-0.2119 7.00175,4.5877 6.91835,11.8996 -0.18929,16.5933 -4.01735,2.6529 -5.48116,2.5868 -9.8072,-0.4433 z m -61.75109,-22.4222 c -0.62666,-1.6331 -0.85368,-20.58407 -0.50447,-42.11329 l 0.63492,-39.14406 8.88419,-0.72996 c 5.67058,-0.46589 8.35244,0.13038 7.41413,1.64868 -0.80853,1.30821 2.24082,0.82809 6.77633,-1.06698 16.27095,-6.79842 35.91361,4.73512 39.36106,23.11155 4.57509,24.38734 -16.8044,45.99394 -38.14821,38.55346 l -6.98068,-2.43348 v 12.57163 12.57165 h -8.14894 c -4.51446,0 -8.65711,-1.3243 -9.28833,-2.9692 z m 43.97119,-41.66495 c 5.38434,-12.88654 -1.01697,-26.90073 -12.28751,-26.90073 -9.17032,0 -14.24641,6.23523 -14.24641,17.49964 0,12.07982 4.49523,17.114 15.28182,17.114 6.92324,0 8.47342,-1.06259 11.2521,-7.71291 z m -163.8347,20.24619 c -10.8858,-5.64726 -11.85472,-7.47309 -6.70082,-12.62699 4.41543,-4.41543 5.10942,-4.46878 13.34821,-1.02641 4.77985,1.99716 10.69122,2.99623 13.13639,2.22014 8.20055,-2.60274 4.7106,-7.61828 -7.83973,-11.26676 -13.36425,-3.88508 -18.84371,-8.47933 -21.15303,-17.73571 -1.91358,-7.67013 7.42546,-19.39229 16.9708,-21.30135 7.55737,-1.51148 20.11277,1.52362 26.50711,6.40773 4.13301,3.15685 4.11535,3.42829 -0.5488,8.43467 -4.22854,4.53879 -5.48758,4.81517 -10.27189,2.25469 -6.26801,-3.35455 -15.74907,-2.61423 -17.04721,1.33108 -0.51617,1.5688 4.42607,4.22768 11.89311,6.3984 14.25235,4.14327 22.08844,10.95293 22.08844,19.19511 0,17.21885 -22.39873,27.04493 -40.38258,17.7154 z m 61.86219,1.29003 c -9.96141,-4.01249 -13.25345,-12.93025 -14.19858,-38.46243 l -0.88175,-23.81998 h 8.33825 8.33824 v 18.31039 c 0,23.56919 2.40479,30.14871 11.01925,30.14871 10.48905,0 12.05651,-3.52819 12.05651,-27.13795 v -21.59974 l 8.65341,0.71618 8.65341,0.7162 0.64387,30.57538 0.64387,30.57539 h -8.14349 c -4.47893,0 -8.1435,-1.0973 -8.1435,-2.43842 0,-1.36677 -2.25398,-0.85969 -5.1286,1.15379 -5.62327,3.93869 -14.00472,4.42295 -21.85089,1.26248 z m 149.56139,-1.61602 c -10.41127,-5.12896 -16.4141,-15.50708 -16.42477,-28.39632 -0.0109,-13.12478 6.38286,-25.25871 15.737,-29.86548 4.7641,-2.34625 7.24318,-5.27581 7.27773,-8.6002 0.0288,-2.77301 1.06511,-7.70546 2.30287,-10.96099 1.90123,-5.0006 3.69173,-5.91916 11.53788,-5.91916 5.10807,0 9.27034,0.77881 9.24946,1.73068 -0.0208,0.95188 -2.38294,5.87115 -5.24902,10.93168 l -5.21109,9.20103 6.97973,3.49064 c 8.47586,4.23893 15.04777,16.59332 15.05264,28.29712 l 0.004,8.65341 h -21.12584 c -20.97966,0 -21.09693,0.0318 -16.94917,4.61515 4.60825,5.09206 14.92843,6.05042 22.35483,2.07592 3.84299,-2.0567 5.62137,-1.66243 9.35863,2.07483 5.556,5.55598 3.8495,9.05147 -6.53771,13.39151 -10.10945,4.22402 -18.7674,4.00422 -28.35675,-0.71982 z m 23.62223,-41.0719 c -2.85381,-7.43691 -18.52907,-6.87035 -21.07308,0.76166 -0.61616,1.8485 2.8275,2.71961 10.75122,2.71961 9.44405,0 11.40409,-0.66107 10.32186,-3.48127 z M 655.6299,985.3126 c -21.11236,-9.17813 -22.85905,-44.26113 -2.89967,-58.24123 6.80072,-4.76342 23.35735,-4.78815 30.59518,-0.0457 7.21759,4.72914 13.21853,17.44975 13.21853,28.02018 v 8.30467 h -21.12583 c -20.97966,0 -21.09693,0.0318 -16.94917,4.61515 4.60825,5.09206 14.92842,6.05042 22.35482,2.07592 3.843,-2.0567 5.62138,-1.66243 9.35863,2.07483 5.556,5.55597 3.8495,9.05147 -6.53771,13.39151 -9.65999,4.03621 -18.42163,3.97515 -28.01478,-0.19522 z m 22.45343,-39.96124 c 0,-7.72542 -13.41504,-9.61931 -19.61439,-2.76909 -4.12535,4.55846 -4.03049,4.61515 7.71886,4.61515 6.54256,0 11.89553,-0.83072 11.89553,-1.84606 z m 36.67166,36.91379 -7.82695,-6.98849 -0.78107,-25.5775 -0.78105,-25.5775 h 8.28067 8.28069 v 21.46046 c 0,23.39801 1.58946,26.99864 11.91822,26.99864 8.95884,0 11.15754,-5.65425 11.15754,-28.693 v -19.7661 h 8.07652 8.07651 v 31.25861 31.25859 l -9.80719,-0.23793 c -5.39396,-0.13084 -14.07315,0.45745 -19.28707,1.30738 -8.40502,1.37014 -10.36732,0.75298 -17.30682,-5.44316 z m 122.71512,2.42681 c -12.40851,-6.32726 -17.49113,-14.99539 -17.34889,-29.58749 0.14422,-14.79184 5.2145,-23.12973 17.90107,-29.43759 15.29782,-7.60618 33.80753,1.74972 38.58851,19.50488 4.41061,16.37976 2.44668,18.1787 -19.84582,18.1787 -10.96115,0 -19.45889,0.97227 -19.45889,2.22639 0,6.00519 19.62872,9.52791 24.72016,4.43648 1.88483,-1.88483 4.13395,-1.42472 8.45976,1.73068 7.29395,5.32049 6.77103,7.35935 -3.26841,12.74357 -9.93056,5.32581 -19.57378,5.39206 -29.74749,0.20445 z m 22.91174,-39.3406 c 0,-6.65422 -14.88472,-10.0371 -20.30667,-4.61515 -4.97276,4.97276 -2.95273,6.46121 8.76879,6.46121 6.34583,0 11.53788,-0.83072 11.53788,-1.84606 z m -297.67732,9.92258 v -31.15228 h 18.46061 18.46061 v 8.07652 c 0,8.03378 -0.0549,8.07652 -10.3841,8.07652 h -10.38409 v 23.07576 23.07576 h -8.07652 -8.07651 z m 46.15152,0 v -31.15228 h 8.07652 8.07651 v 31.15228 31.15228 h -8.07651 -8.07652 z m 168.45306,0 v -31.15228 h 18.46061 18.4606 v 8.07652 c 0,8.03378 -0.0549,8.07652 -10.38409,8.07652 h -10.38409 v 23.07576 23.07576 h -8.07652 -8.07651 z m 119.99395,-1.15379 v -6.92273 h 212.29704 212.297 v 6.92273 6.92273 H 1109.6001 897.30306 Z M 610.17467,913.57274 c -4.8062,-4.8062 -4.57417,-8.64606 0.81727,-13.52525 5.41884,-4.90399 11.26058,-4.0493 15.44159,2.25922 2.66684,4.02384 2.60294,5.47418 -0.43203,9.8072 -4.1766,5.96292 -10.71963,6.56603 -15.82683,1.45883 z M 380.8884,873.33363 c -32.11926,-7.36769 -30.96697,-57.23861 1.47089,-63.65938 26.25215,-5.19636 46.95583,21.61024 35.29477,45.69879 -7.09794,14.66239 -21.17167,21.53762 -36.76566,17.96059 z m 17.46477,-17.41631 c 6.38444,-4.47184 7.15967,-20.33722 1.3096,-26.80147 -5.48661,-6.06263 -18.05864,-5.55688 -22.58727,0.90864 -11.71193,16.72112 5.12323,37.20784 21.27767,25.89283 z m 195.10844,16.32538 c -13.08719,-5.59274 -16.22835,-19.44262 -6.87565,-30.31578 4.54922,-5.28877 7.70301,-6.46716 19.61439,-7.32876 7.80646,-0.56466 14.19358,-1.73259 14.19358,-2.59538 0,-6.99647 -17.99187,-9.77124 -23.13956,-3.56866 -2.60353,3.13707 -3.55127,2.96065 -8.35906,-1.55603 -2.98243,-2.80185 -5.4226,-5.76045 -5.4226,-6.57468 0,-0.81423 4.25531,-3.87203 9.45624,-6.79512 12.45226,-6.99855 27.56788,-5.70883 36.38999,3.10493 5.70207,5.69666 6.12209,7.62083 6.8553,31.40512 l 0.78105,25.33665 h -8.28067 c -4.55439,0 -8.28069,-1.07495 -8.28069,-2.38877 0,-1.52503 -1.46016,-1.64045 -4.03826,-0.31921 -8.04993,4.12548 -15.72288,4.66027 -22.89406,1.59569 z m 23.38246,-15.84446 c 5.51278,-4.03106 2.70875,-8.42659 -5.37559,-8.42659 -7.70034,0 -15.47271,5.22374 -13.21288,8.88024 2.24052,3.62524 13.38209,3.35333 18.58847,-0.45365 z m 84.7974,16.90132 c -20.05371,-4.51007 -29.28139,-28.13874 -18.92035,-48.44805 14.23643,-27.90571 55.31999,-16.33251 52.66609,14.83599 l -0.76826,9.02267 -19.23596,-0.52113 c -17.41269,-0.47172 -19.16033,-0.12848 -18.43818,3.62132 1.18702,6.16374 12.06385,9.23216 20.90131,5.89638 5.98396,-2.25869 8.24421,-2.1274 12.60878,0.73238 6.86463,4.49787 6.69957,6.20565 -1.028,10.63739 -8.36406,4.79675 -18.43112,6.32682 -27.78543,4.22305 z m 17.97823,-41.01943 c 0,-6.65422 -14.88472,-10.03711 -20.30667,-4.61515 -4.97275,4.97276 -2.95272,6.46121 8.76879,6.46121 6.34584,0 11.53788,-0.83072 11.53788,-1.84606 z m -429.20915,9.80611 V 810.8175 l 10.96098,0.19541 c 6.02855,0.10749 14.84628,-0.47191 19.59496,-1.28752 7.72654,-1.32707 9.48487,-0.63204 16.72993,6.61302 l 8.09595,8.09596 v 24.46031 24.46031 h -8.07651 -8.07652 v -21.46046 c 0,-23.39801 -1.58945,-26.99864 -11.91821,-26.99864 -8.95884,0 -11.15755,5.65425 -11.15755,28.693 v 19.7661 h -8.07652 -8.07651 z m 143.06972,0.11647 v -31.15228 h 17.45302 17.45303 l -0.7231,7.49962 c -0.69008,7.15716 -1.11825,7.46521 -9.37651,6.74593 l -8.65341,-0.75369 v 24.40635 24.40635 h -8.07652 -8.07651 z m 46.15152,-0.11646 v -31.26874 l 10.96098,0.23741 c 6.02855,0.13056 14.42319,-0.46691 18.65478,-1.32774 5.93387,-1.20712 9.23292,-0.42721 14.42234,3.40951 3.70071,2.73605 6.72857,4.07182 6.72857,2.96838 0,-3.03755 10.88643,-7.36221 18.53279,-7.36221 4.21915,0 9.6058,2.52685 14.26927,6.69369 7.46861,6.67318 7.49424,6.77216 8.36822,32.30606 l 0.87664,25.61238 h -8.3318 -8.33178 v -19.7661 c 0,-23.42991 -2.14173,-28.693 -11.67617,-28.693 -9.03716,0 -11.39959,6.24799 -11.39959,30.14871 v 18.31039 h -7.9958 -7.99578 l -0.65762,-23.65266 -0.65762,-23.65265 -6.80894,-0.77486 c -10.33124,-1.17569 -12.80546,4.18663 -12.80546,27.75303 v 20.32714 h -8.07652 -8.07651 z m 170.76063,-11.42142 v -42.69016 h 8.07652 8.07651 v 42.69016 42.69016 h -8.07651 -8.07652 z m 103.84093,8.07652 v -6.92273 h 283.83185 283.8319 v 6.92273 6.92272 H 1038.0652 754.23335 Z m -446.70419,-80.6933 c -22.80402,-9.22519 -23.45735,-50.75245 -0.94517,-60.0773 5.33799,-2.21107 6.90232,-4.32176 6.90232,-9.31308 0,-11.67386 1.99016,-13.75423 13.15782,-13.75423 h 10.35648 l -5.78952,9.87906 -5.78952,9.87907 6.52608,3.74545 c 8.99531,5.1626 14.20626,13.90308 15.58583,26.1426 l 1.16668,10.3508 h -21.06829 c -11.58756,0 -21.06829,0.91126 -21.06829,2.02502 0,6.87456 19.3736,10.83764 26.02779,5.32428 1.96928,-1.63165 4.37925,-1.06772 8.00896,1.87409 7.05299,5.71631 6.56766,7.72645 -2.96276,12.27119 -8.65618,4.12784 -22.15842,4.86917 -30.10841,1.65305 z m 21.68007,-40.98366 c -0.42268,-2.19481 -3.58261,-4.98024 -7.02205,-6.18982 -4.94665,-1.73965 -7.23264,-1.31318 -10.93857,2.04064 -7.16406,6.48338 -5.73513,8.13975 7.02205,8.13975 9.85419,0 11.58545,-0.63159 10.93857,-3.99057 z m 44.96298,38.69763 c -20.022,-12.20813 -19.18695,-45.87003 1.40201,-56.517 9.46909,-4.89666 22.95117,-4.46768 31.94581,1.01647 8.90114,5.42712 9.11094,6.82485 1.82008,12.12566 -5.25087,3.81764 -5.89105,3.81923 -12.49154,0.0311 -6.70545,-3.8484 -7.19114,-3.81873 -13.43048,0.82054 -7.3149,5.43898 -10.04748,19.42634 -4.98649,25.52446 6.79418,8.18649 20.13072,8.16201 25.46673,-0.0467 1.50652,-2.31758 10.87341,6.70639 11.04456,10.64022 0.0422,0.97053 -3.29806,3.82227 -7.42286,6.33721 -9.56545,5.83217 -23.84662,5.86135 -33.34782,0.0681 z m 67.19636,2.41148 c -6.38742,-2.7508 -16.76493,-15.29151 -18.55467,-22.42241 -3.38129,-13.47213 3.31412,-29.06721 15.63756,-36.42333 8.4761,-5.05957 24.05617,-4.63274 33.0156,0.9045 25.96883,16.04962 16.20942,56.98307 -14.11321,59.19439 -6.15005,0.4485 -13.34343,-0.11541 -15.98528,-1.25315 z m 24.99465,-19.11409 c 5.80998,-6.71928 5.09959,-17.1529 -1.62579,-23.87828 -3.11522,-3.11523 -7.55701,-5.66405 -9.87064,-5.66405 -6.64813,0 -13.96889,6.33899 -15.53017,13.44744 -4.10092,18.6714 14.97567,30.03189 27.0266,16.09489 z m 33.26756,19.68596 c -0.84611,-0.84611 -1.53838,-20.05668 -1.53838,-42.69016 v -41.15177 h 8.07651 8.07652 v 42.69016 42.69016 h -6.53813 c -3.59598,0 -7.23041,-0.69228 -8.07652,-1.53839 z m 43.15177,-2.88769 c -11.17582,-6.81468 -14.69356,-13.4819 -14.67646,-27.81654 0.0247,-20.70478 10.31665,-32.12604 29.09519,-32.28774 15.84878,-0.13648 28.57901,14.14593 28.57901,32.06358 v 6.91025 l -20.87537,0.66349 c -20.24178,0.64335 -20.7752,0.80017 -17.57473,5.16667 3.72784,5.08598 17.87192,5.89587 23.364,1.33784 2.54073,-2.10862 4.26809,-1.65978 8.00897,2.08109 6.48477,6.48477 6.05289,8.24987 -3.07881,12.58315 -10.49357,4.97952 -23.99792,4.69095 -32.8418,-0.70179 z m 24.53713,-38.31355 c 0,-4.2426 -9.88423,-9.15539 -14.70115,-7.30696 -1.90165,0.72974 -4.60043,3.46227 -5.99728,6.07229 -2.40666,4.4969 -1.93102,4.7455 9.07937,4.7455 8.86243,0 11.61906,-0.83294 11.61906,-3.51083 z m 34.61364,10.43356 v -6.92273 h 359.98188 359.9819 v 6.92273 6.92273 H 961.9152 601.93332 Z"
     id="path935"
     inkscape:connector-curvature="0" />
  <path
     style="fill:#63003c;stroke-width:1;fill-opacity:1"
     d="m 549.215,429.51595 c -3.14819,-1.02763 -9.09658,-3.61246 -13.21868,-5.7441 l -7.49471,-3.87567 5.22584,-6.34616 5.22584,-6.34619 6.85099,4.15794 c 11.45837,6.95418 28.54579,5.13632 28.54579,-3.03686 0,-4.48343 -2.01045,-5.59945 -25.92375,-14.39055 -8.5425,-3.14045 -11.78859,-5.76929 -14.17427,-11.47897 -3.96204,-9.48252 -0.69542,-22.61335 6.85666,-27.56166 11.03598,-7.23106 32.08382,-6.23353 43.42311,2.05797 4.24437,3.10357 4.24061,3.28276 -0.18748,8.91215 -4.2343,5.38303 -4.91415,5.53782 -10.79335,2.45738 -3.45093,-1.80811 -10.07805,-2.97152 -14.72691,-2.58535 -6.57882,0.54648 -8.60482,1.76906 -9.13963,5.51518 -0.71433,5.00348 -0.8072,4.94904 22.67319,13.2913 13.18379,4.68405 18.01239,9.89146 18.37741,19.81911 0.40572,11.03525 -2.01615,17.06403 -8.5836,21.36718 -6.7002,4.39016 -24.73616,6.46407 -32.93647,3.7873 z m 137.01977,-0.1272 c -3.14818,-0.95763 -9.06529,-3.46902 -13.14917,-5.58086 l -7.42519,-3.83973 4.86454,-6.57967 4.86457,-6.57966 7.14275,4.35547 c 12.80713,7.80942 31.81259,4.00088 28.11529,-5.63409 -0.67829,-1.76758 -8.2437,-5.5103 -16.81202,-8.31715 -18.5695,-6.08306 -23.02586,-9.55788 -24.8709,-19.39277 -4.25565,-22.68454 24.1633,-35.77657 49.36791,-22.74275 6.85729,3.54605 6.86887,3.58547 2.98244,10.16465 -3.77024,6.3825 -4.1232,6.4902 -10.48619,3.19978 -9.56864,-4.94815 -23.24443,-3.35568 -24.12455,2.80916 -0.71549,5.01175 -0.88695,4.91165 22.95666,13.39957 12.77492,4.54757 17.69457,10.59517 17.69457,21.75141 0,18.42294 -19.77782,29.47877 -41.12071,22.98657 z m -465.33546,-39.5432 0.62484,-39.39318 22.30376,0.15346 c 18.73724,0.1288 23.30164,0.89847 28.54422,4.81262 9.3594,6.9878 13.30277,19.20309 9.88345,30.61578 -3.73153,12.45471 -13.18871,18.06446 -30.4729,18.0757 l -13.13106,0.009 v 12.56014 12.56014 h -9.18857 -9.18858 z m 40.98004,-3.20852 c 9.87008,-8.9323 2.13383,-21.34085 -13.30518,-21.34085 h -9.92255 v 12.56014 12.56015 h 9.52575 c 5.65909,0 11.22095,-1.53414 13.70198,-3.77944 z m 30.9672,38.60529 c 0.84004,-2.19802 8.36679,-19.92495 16.72611,-39.39318 15.17495,-35.34132 15.21113,-35.39784 23.09139,-36.0799 l 7.89262,-0.68316 16.41754,38.36359 c 9.02966,21.09997 16.41665,39.13431 16.41554,40.07632 -10e-4,0.94201 -3.60711,1.71274 -8.01333,1.71274 -7.21492,0 -8.37464,-0.90805 -11.66627,-9.13465 l -3.65496,-9.13465 h -17.65583 -17.65582 l -3.0147,9.13465 c -2.81529,8.53042 -3.59003,9.13465 -11.71217,9.13465 -7.34269,0 -8.45955,-0.6225 -7.17012,-3.99641 z m 48.5699,-30.7531 c 0,-4.27013 -7.27484,-22.34205 -8.99378,-22.34205 -1.44987,0 -9.31052,19.81287 -9.28681,23.40754 0.006,0.94201 4.12188,1.71275 9.14594,1.71275 5.6514,0 9.13465,-1.05942 9.13465,-2.77824 z m 54.80791,-5.51392 v -40.26344 l 23.40755,1.06147 c 28.05371,1.27216 36.62449,4.81567 40.57103,16.77382 3.82758,11.59769 1.14215,22.47197 -7.3048,29.57959 l -7.1135,5.98562 9.35937,13.56318 9.35936,13.56319 h -9.83772 c -9.39123,0 -10.21622,-0.57004 -18.17719,-12.56014 -7.45756,-11.2319 -9.18226,-12.56014 -16.30896,-12.56014 H 412.21 v 12.56014 12.56014 h -7.99282 -7.99282 z m 47.02509,-6.55165 c 3.46527,-5.28867 3.46527,-6.12965 0,-11.41831 -3.23648,-4.9395 -5.42693,-5.70916 -16.24828,-5.70916 h -12.5075 v 11.41831 11.41832 h 12.5075 c 10.82135,0 13.0118,-0.76967 16.24828,-5.70916 z m 44.83843,7.4219 0.62483,-39.39318 8.56374,-0.70878 8.56373,-0.70876 v 40.10194 40.10196 h -9.18857 -9.18859 z m 273.16515,-0.68041 17.29382,-40.07362 7.84712,0.68044 c 7.82157,0.6782 7.89663,0.79571 23.0459,36.07718 8.3593,19.46823 15.88605,37.19516 16.7261,39.39318 1.28979,3.37487 0.17173,3.99641 -7.18923,3.99641 -8.04886,0 -8.99144,-0.69973 -12.30476,-9.13465 l -3.5882,-9.13465 h -17.32967 -17.32967 l -3.65498,9.13465 c -3.35584,8.38707 -4.35695,9.13465 -12.2326,9.13465 h -8.57766 z m 33.35244,3.16298 c -2.74416,-8.6461 -7.8978,-20.18095 -9.01658,-20.18095 -1.11879,0 -6.27243,11.53485 -9.01659,20.18095 -1.45312,4.57836 -0.79414,4.93934 9.01659,4.93934 9.81073,0 10.4697,-0.36098 9.01658,-4.93934 z m 68.62795,33.6869 c -14.19506,-6.30905 -21.7209,-19.32629 -21.65723,-37.45996 0.10551,-30.05314 32.33941,-48.29958 60.90034,-34.47347 5.42059,2.62407 9.85565,5.52788 9.85565,6.4529 0,0.92505 -2.49543,4.02621 -5.54538,6.89148 -5.20995,4.89451 -5.8623,4.98763 -10.78462,1.53992 -7.91262,-5.54222 -22.94387,-4.77557 -28.79306,1.46853 -14.35458,15.3237 -9.87782,37.55705 8.68189,43.11768 7.5795,2.27087 10.02019,1.97562 18.54842,-2.24382 9.71066,-4.80446 9.86987,-4.80937 14.23957,-0.43967 3.76364,3.76364 3.96355,4.96802 1.34789,8.1197 -8.26641,9.9604 -32.13011,13.54388 -46.79347,7.02671 z m 74.21905,-36.74038 v -39.9641 h 7.99282 7.99282 v 31.97128 31.97128 h 20.55296 20.55297 v 7.99282 7.99281 h -28.54579 -28.54578 z m 74.05283,35.96768 c 0.8054,-2.19802 8.3631,-20.22875 16.7949,-40.06827 l 15.3306,-36.07187 7.8674,0.6751 c 7.8541,0.67395 7.8958,0.73938 24.4237,38.35553 9.106,20.72424 16.6155,38.45117 16.6879,39.39318 0.072,0.94201 -3.8144,1.71274 -8.6374,1.71274 -8.2057,0 -8.9628,-0.58685 -11.7838,-9.13465 l -3.0147,-9.13465 h -17.6559 -17.6558 l -3.6549,9.13465 c -3.3205,8.29854 -4.4107,9.13465 -11.9106,9.13465 -6.8979,0 -8.0148,-0.65726 -6.7914,-3.99641 z m 49.265,-30.06919 c 0,-1.1519 -2.1857,-7.06088 -4.857,-13.13106 l -4.8569,-11.03673 -5.2794,11.41831 c -2.9037,6.28007 -5.3425,12.18905 -5.4196,13.13106 -0.077,0.94201 4.4843,1.71275 10.1364,1.71275 5.652,0 10.2765,-0.94245 10.2765,-2.09433 z m 63.9425,18.50228 c 0,-15.23904 -0.3093,-16.04962 -14.8438,-38.89906 -8.1641,-12.83464 -14.8438,-23.87407 -14.8438,-24.53206 0,-0.658 4.3132,-0.88036 9.5848,-0.49414 9.1602,0.67112 9.9899,1.37842 18.7306,15.96661 5.0302,8.39543 9.8693,14.8173 10.7534,14.27084 0.8842,-0.54644 5.5146,-7.67233 10.2897,-15.83531 8.2664,-14.13112 9.0967,-14.84175 17.3422,-14.84175 4.7631,0 8.6602,0.65105 8.6602,1.44679 0,0.79575 -6.6797,11.92492 -14.8438,24.73154 -14.4585,22.68029 -14.8438,23.68015 -14.8438,38.51729 v 15.23257 h -7.9929 -7.9928 z M 610.88867,393.84196 v -7.99282 h 18.26931 18.2693 v 7.99282 7.99282 h -18.2693 -18.26931 z M 252.61731,309.34389 c -5.50703,-1.71736 -13.49946,-6.50193 -17.76097,-10.63235 -12.02706,-11.65707 -14.47402,-23.63481 -14.47402,-70.84961 v -40.69144 h 10.09511 10.09512 l 0.75228,41.7853 c 0.83104,46.15946 1.85428,49.86096 16.29109,58.93201 9.07338,5.70105 26.41427,4.82413 35.44281,-1.79235 12.36517,-9.06169 14.09534,-16.36708 14.09923,-59.53178 l 0.004,-39.39318 h 10.27648 10.27649 v 60.51706 60.51706 h -10.27649 c -9.93119,0 -10.27648,-0.2338 -10.27648,-6.95859 v -6.95862 l -8.56374,6.76812 c -8.43528,6.66658 -22.45827,11.82508 -31.40036,11.55092 -2.51203,-0.077 -9.07308,-1.54517 -14.5801,-3.26255 z m 503.28396,1.40897 c -29.99701,-7.87681 -46.81509,-30.95801 -46.81509,-64.24919 0,-12.4286 1.28986,-17.79534 7.04517,-29.31269 7.71882,-15.44676 16.57526,-23.51513 31.65013,-28.83386 41.22009,-14.5433 79.16408,17.77124 75.69963,64.46867 -0.16191,2.18115 -10.95487,2.85458 -45.75026,2.85458 -27.54162,0 -46.08985,0.89211 -46.93361,2.25734 -2.48146,4.0151 7.19031,21.99208 14.71437,27.34969 15.87655,11.30511 39.43536,10.08467 54.11395,-2.80327 l 7.96742,-6.9955 6.88333,6.88335 6.88335,6.88333 -9.12025,7.22336 c -5.01611,3.97284 -12.7318,8.73238 -17.14597,10.57674 -10.00856,4.18184 -30.12137,6.07931 -39.19217,3.69745 z m 45.76214,-77.3382 c -2.5216,-10.22928 -8.94751,-19.61102 -17.33983,-25.31594 -6.36231,-4.32496 -10.08653,-5.17168 -19.44685,-4.42135 -16.48561,1.32151 -30.14278,13.19857 -34.19429,29.73729 l -1.53844,6.28007 h 37.03375 37.03375 z m 472.62929,77.22189 c -17.3582,-4.22584 -33.0787,-17.444 -40.8855,-34.37759 -7.2356,-15.69451 -6.5505,-42.95244 1.4695,-58.4646 11.6817,-22.59489 32.3451,-34.49366 56.1526,-32.33488 30.959,2.80726 50.0155,23.56056 52.4223,57.08983 l 1.1066,15.41472 h -47.122 c -27.7047,0 -47.1219,0.87976 -47.1219,2.135 0,10.38203 10.8903,24.04681 23.9784,30.08739 15.2018,7.01603 32.2497,4.37765 45.2033,-6.99579 l 7.398,-6.49556 6.2416,5.36875 c 3.4328,2.95283 6.2415,6.35678 6.2415,7.56439 0,3.9983 -19.1897,16.38916 -30.6549,19.79394 -11.9623,3.55242 -23.1979,3.94872 -34.4295,1.2144 z m 46.9406,-77.3553 c -5.8059,-20.24414 -17.1362,-30.10239 -34.6136,-30.11658 -13.0262,-0.0105 -23.9273,6.81518 -31.0948,19.47012 -9.7257,17.17159 -9.9297,17.05994 31.1686,17.05994 h 36.3792 z m -721.66598,23.32038 c -12.89545,-29.7631 -24.90914,-57.61591 -26.69711,-61.89511 l -3.25086,-7.78038 11.78536,0.69309 11.78535,0.69309 18.18577,44.53143 c 10.00216,24.49228 18.91697,45.30204 19.81063,46.24391 0.89369,0.94188 10.2574,-19.35417 20.80824,-45.10233 l 19.18338,-46.81484 h 10.96122 c 6.02869,0 10.96124,0.44998 10.96124,0.99995 0,0.54998 -11.72083,28.03957 -26.04627,61.08798 l -26.04627,60.08802 -8.9972,0.68497 -8.9972,0.68496 z m 371.81428,50.82544 c -12.5575,-4.65406 -23.56998,-11.63129 -24.19881,-15.33173 -0.30859,-1.81602 1.347,-5.76394 3.67909,-8.77317 l 4.24017,-5.47132 14.3766,7.18406 c 24.93193,12.45864 50.18565,8.12432 50.18565,-8.61338 0,-8.80537 -6.0862,-13.44439 -25.51346,-19.4466 -34.98626,-10.80931 -44.59402,-19.79431 -42.36003,-39.6143 1.33645,-11.85672 7.0248,-20.37563 17.87165,-26.76464 11.9571,-7.04297 37.94784,-6.25023 55.14014,1.68182 7.2221,3.33207 13.131,6.91416 13.131,7.96019 0,1.04603 -1.7145,4.44274 -3.8101,7.54824 -2.0955,3.10551 -3.9437,5.86748 -4.1071,6.13771 -0.1635,0.27023 -6.8496,-2.15537 -14.8584,-5.39025 -22.58193,-9.12125 -43.45059,-4.48438 -43.45059,9.65443 0,7.53656 9.26624,13.69235 31.06199,20.63521 11.9223,3.79777 22.3584,8.84527 27.5282,13.31421 7.2936,6.30475 8.4505,8.74143 9.3265,19.6431 0.8296,10.32517 0.09,13.77147 -4.3416,20.22834 -9.7044,14.13941 -16.1582,17.2728 -36.9078,17.91929 -11.46412,0.35718 -21.88635,-0.60855 -26.9931,-2.50121 z m 192.6059,-0.75893 c -13.521,-6.6635 -15.2068,-12.91904 -16.0485,-59.5515 l -0.7523,-41.67685 h -11.2369 -11.237 v -9.13465 -9.13465 h 11.4183 11.4184 v -14.27681 -14.27681 l 9.7055,-5.14067 c 5.3381,-2.82736 10.4763,-5.1378 11.4183,-5.13432 0.942,0.003 1.7128,8.74136 1.7128,19.41748 v 19.41113 h 18.2693 18.2693 v 9.0423 9.04229 l -18.8402,0.66327 -18.8402,0.66328 v 38.17449 c 0,33.20072 0.5166,38.69058 3.9656,42.13541 4.277,4.27196 16.9513,5.25862 27.4347,2.13573 6.1181,-1.82248 6.2801,-1.63444 6.2801,7.28808 0,8.21972 -0.7374,9.41586 -7.1918,11.66586 -10.3483,3.60744 -27.0026,2.99567 -35.7454,-1.31306 z M 368.82041,247.68755 v -60.51706 h 11.41831 c 11.14703,0 11.41832,0.16166 11.41832,6.80393 v 6.80393 l 10.46277,-7.37485 c 9.61116,-6.77457 11.90174,-7.37484 28.14164,-7.37484 15.35768,0 18.89498,0.80478 26.94101,6.12939 5.81913,3.85092 11.27499,10.21768 14.67703,17.12747 5.02769,10.21161 5.46823,14.14169 6.16043,54.95859 l 0.74552,43.9605 H 468.589 458.39256 l -0.93038,-40.53501 c -1.01267,-44.12053 -2.70546,-50.91687 -14.62781,-58.72869 -8.23333,-5.39468 -26.02926,-5.2782 -35.4131,0.23179 -13.83296,8.12243 -15.76423,15.4244 -15.76423,59.60311 v 39.4288 h -11.41832 -11.41831 z m 148.43809,0 v -60.51706 h 11.41831 11.41831 v 60.51706 60.51706 H 528.67681 517.2585 Z m 340.26577,0 v -60.51706 h 10.27648 10.27648 v 11.92264 11.92265 l 8.40164,-8.64992 c 10.10355,-10.4021 17.69184,-14.56666 30.18092,-16.56375 l 9.37436,-1.49902 v 11.71018 c 0,11.00803 -0.34673,11.71019 -5.78251,11.71019 -7.12148,0 -21.11168,5.68279 -26.91911,10.93449 -11.10031,10.0381 -13.8569,20.42243 -14.8291,55.86264 l -0.92401,33.68402 h -10.02757 -10.02758 z m 219.23163,0 v -60.51706 h 10.2765 10.2765 v 60.51706 60.51706 h -10.2765 -10.2765 z m 204.3878,-96.57487 c -8.0146,-1.64377 -14.8438,-9.84205 -14.8438,-17.81956 0,-10.62195 1.9483,-14.34179 9.5781,-18.2873 17.8632,-9.23743 37.2421,11.77294 25.8544,28.03111 -3.8751,5.53252 -13.8713,9.45345 -20.5887,8.07575 z m 60.4815,-52.59043 c -5.1182,-2.6711 -9.8413,-7.89316 -13.2378,-14.636501 -7.0747,-14.045663 -5.1494,-24.892208 6.4949,-36.589594 7.8196,-7.855267 9.5796,-8.563735 21.2742,-8.563735 10.956,0 13.8652,0.979747 20.6822,6.965136 18.4439,16.194003 15.2405,43.019617 -6.3614,53.270378 -10.1705,4.826256 -19.0121,4.689686 -28.8521,-0.445684 z"
     id="path871"
     inkscape:connector-curvature="0" />
  <path
     style="fill:#63003c;stroke:#63003c;stroke-width:11.33858268;stroke-linecap:round;stroke-linejoin:miter;stroke-opacity:1;stroke-miterlimit:3.70000005;stroke-dasharray:34.01574803, 34.01574802999999747;stroke-dashoffset:0;fill-opacity:1"
     d="M 155.66099,566.4778 H 1431.6968"
     id="path867"
     inkscape:connector-curvature="0" />
</svg>
