<?xml version="1.0" encoding="UTF-8" standalone="no"?>
<!-- Created with Inkscape (http://www.inkscape.org/) -->

<svg
   version="1.1"
   id="svg1"
   width="916.53998"
   height="308.37"
   viewBox="0 0 916.53998 308.37"
   sodipodi:docname="lmf-logo.pdf"
   inkscape:version="1.3.2 (091e20ef0f, 2023-11-25)"
   xmlns:inkscape="http://www.inkscape.org/namespaces/inkscape"
   xmlns:sodipodi="http://sodipodi.sourceforge.net/DTD/sodipodi-0.dtd"
   xmlns="http://www.w3.org/2000/svg"
   xmlns:svg="http://www.w3.org/2000/svg">
  <defs
     id="defs1" />
  <sodipodi:namedview
     id="namedview1"
     pagecolor="#ffffff"
     bordercolor="#000000"
     borderopacity="0.25"
     inkscape:showpageshadow="2"
     inkscape:pageopacity="0.0"
     inkscape:pagecheckerboard="0"
     inkscape:deskcolor="#d1d1d1"
     inkscape:zoom="1.0681476"
     inkscape:cx="458.26999"
     inkscape:cy="154.47303"
     inkscape:window-width="2040"
     inkscape:window-height="2213"
     inkscape:window-x="2048"
     inkscape:window-y="0"
     inkscape:window-maximized="1"
     inkscape:current-layer="g1">
    <inkscape:page
       x="0"
       y="0"
       inkscape:label="1"
       id="page1"
       width="916.53998"
       height="308.37"
       margin="0"
       bleed="0" />
  </sodipodi:namedview>
  <g
     id="g1"
     inkscape:groupmode="layer"
     inkscape:label="1">
    <path
       id="path1"
       d="m 406.387,77.332 v 3 h -16.883 v -27 l 3.277,0.039 v 24 z"
       style="fill:#2e3440;fill-opacity:1;fill-rule:nonzero;stroke:none"
       transform="scale(1.3333333)" />
    <path
       id="path2"
       d="m 429.031,77.445 v 2.856 h -4.742 l -1.152,-2.25 c -1.203,1.734 -3.203,2.621 -5.785,2.621 -3.891,0 -6.516,-1.969 -6.516,-5.551 0,-7.711 12.262,-2.812 12.262,-6.937 v -0.122 c 0,-1.695 -1.164,-3.39 -3.977,-3.39 -2.504,0 -3.93,1.351 -4.699,3.43 l -2.703,-1.391 c 1.164,-3.098 4.195,-5.09 7.5,-4.934 4.238,0 7.09,2.551 7.09,6.442 v 9.211 z m -5.933,-3.75 V 71.34 c -3.09,1.582 -9.059,0.121 -9.059,3.894 0,2.25 2,2.547 3.426,2.547 4.387,0.016 5.633,-2.535 5.633,-4.07 z"
       style="fill:#2e3440;fill-opacity:1;fill-rule:nonzero;stroke:none"
       transform="scale(1.3333333)" />
    <path
       id="path3"
       d="m 451.539,71.242 c 0,4.313 -2.355,9.442 -8.289,9.442 -2.168,0.113 -4.262,-0.817 -5.633,-2.504 l -1.312,2.121 h -1.965 v -27 h 3.203 l -0.121,11.176 c 1.383,-1.801 3.558,-2.809 5.828,-2.7 5.934,0.032 8.289,5.184 8.289,9.465 z m -3.203,0 c 0,-4.012 -1.965,-6.554 -5.356,-6.554 -3.39,0 -5.867,2.503 -5.867,6.359 0,4.238 2.469,6.75 5.867,6.75 3.399,0 5.356,-2.551 5.356,-6.555 z"
       style="fill:#2e3440;fill-opacity:1;fill-rule:nonzero;stroke:none"
       transform="scale(1.3333333)" />
    <path
       id="path4"
       d="m 457.262,71.047 c 0,-4.434 2.504,-9.254 8.593,-9.254 6.09,0 8.594,4.82 8.594,9.254 0,4.824 -2.504,9.637 -8.594,9.637 -6.089,0 -8.593,-4.813 -8.593,-9.637 z m 13.992,0 c 0,-3.856 -1.926,-6.359 -5.399,-6.359 -3.472,0 -5.394,2.503 -5.394,6.359 0,4.238 1.93,6.75 5.394,6.75 3.465,0 5.399,-2.488 5.399,-6.75 z"
       style="fill:#2e3440;fill-opacity:1;fill-rule:nonzero;stroke:none"
       transform="scale(1.3333333)" />
    <path
       id="path5"
       d="m 497.414,66.727 -2.738,1.277 c -0.922,-2.348 -1.731,-3.316 -3.75,-3.316 -4.274,0 -4.973,4.273 -4.973,7.441 v 5.25 h 3.75 v 2.894 h -10.406 v -2.867 h 3.433 V 65.07 h -3.046 v -2.886 h 5.011 l 1.5,2.39 c 1.059,-1.75 2.969,-2.812 5.016,-2.781 2.641,0.016 4.891,1.395 6.203,4.934 z"
       style="fill:#2e3440;fill-opacity:1;fill-rule:nonzero;stroke:none"
       transform="scale(1.3333333)" />
    <path
       id="path6"
       d="m 520.484,77.445 v 2.856 h -4.738 l -1.156,-2.25 c -1.192,1.734 -3.203,2.621 -5.781,2.621 -3.895,0 -6.52,-1.969 -6.52,-5.551 0,-7.711 12.262,-2.812 12.262,-6.937 v -0.122 c 0,-1.695 -1.153,-3.39 -3.973,-3.39 -2.504,0 -3.93,1.351 -4.703,3.43 l -2.691,-1.391 c 1.16,-3.098 4.191,-5.094 7.5,-4.934 4.238,0 7.093,2.551 7.093,6.442 v 9.211 z m -5.933,-3.75 V 71.34 c -3.082,1.582 -9.059,0.121 -9.059,3.894 0,2.25 2.004,2.547 3.43,2.547 4.43,0.016 5.629,-2.535 5.629,-4.07 z"
       style="fill:#2e3440;fill-opacity:1;fill-rule:nonzero;stroke:none"
       transform="scale(1.3333333)" />
    <path
       id="path7"
       d="m 541.891,75.711 c -1.118,3.203 -3.235,4.973 -6.75,4.973 -4.246,0 -6.707,-2.579 -6.707,-6.973 V 65.07 h -4.86 v -2.886 h 4.86 v -6.481 h 3.195 v 6.481 h 9.367 v 2.886 h -9.359 v 8.137 c 0,1.5 0,4.59 3.547,4.59 2.507,0 3.242,-1.5 4.015,-3.434 z"
       style="fill:#2e3440;fill-opacity:1;fill-rule:nonzero;stroke:none"
       transform="scale(1.3333333)" />
    <path
       id="path8"
       d="m 547.336,71.047 c 0,-4.434 2.504,-9.254 8.602,-9.254 6.097,0 8.593,4.82 8.593,9.254 0,4.824 -2.504,9.637 -8.593,9.637 -6.09,0 -8.602,-4.813 -8.602,-9.637 z m 13.992,0 c 0,-3.856 -1.926,-6.359 -5.39,-6.359 -3.465,0 -5.399,2.503 -5.399,6.359 0,4.238 1.926,6.75 5.399,6.75 3.472,0 5.414,-2.488 5.414,-6.75 z"
       style="fill:#2e3440;fill-opacity:1;fill-rule:nonzero;stroke:none"
       transform="scale(1.3333333)" />
    <path
       id="path9"
       d="m 586.582,77.406 v 2.895 h -17.039 v -2.895 h 6.898 V 65.07 h -6.089 v -2.886 h 9.332 l 0.035,15.222 z m -6.555,-19.617 h -4.5 v -4.5 h 4.5 z"
       style="fill:#2e3440;fill-opacity:1;fill-rule:nonzero;stroke:none"
       transform="scale(1.3333333)" />
    <path
       id="path10"
       d="m 610.328,66.727 -2.738,1.277 c -0.922,-2.348 -1.731,-3.316 -3.75,-3.316 -4.281,0 -4.973,4.273 -4.973,7.441 v 5.25 h 3.75 v 2.894 h -10.402 v -2.867 h 3.426 V 65.07 h -3.043 v -2.886 h 5.011 l 1.5,2.39 c 1.055,-1.742 2.953,-2.797 4.993,-2.765 2.64,0 4.921,1.379 6.226,4.918 z"
       style="fill:#2e3440;fill-opacity:1;fill-rule:nonzero;stroke:none"
       transform="scale(1.3333333)" />
    <path
       id="path11"
       d="m 632.766,71.242 v 0.848 h -14.153 c 0.274,3.547 2.25,5.746 6,5.746 2.582,0 4.239,-1.082 5.012,-3.438 l 2.699,1.391 c -1.152,2.734 -3.433,4.934 -7.828,4.934 -6.586,0 -9.09,-4.899 -9.09,-9.481 0,-4.582 2.422,-9.414 8.903,-9.414 6.261,-0.019 8.691,4.555 8.457,9.414 z m -14.032,-2.008 10.68,0.043 c -0.23,-3.164 -2.195,-4.589 -5.09,-4.589 -3.195,0 -5.051,1.734 -5.59,4.546 z"
       style="fill:#2e3440;fill-opacity:1;fill-rule:nonzero;stroke:none"
       transform="scale(1.3333333)" />
    <path
       id="path12"
       d="m 403.156,128.484 0.11,-20.898 -5.008,9.137 h -2.086 l -5.008,-9.164 0.117,20.894 h -3.277 v -27 h 2.617 l 6.555,11.453 6.558,-11.453 h 2.618 l 0.043,27 z"
       style="fill:#2e3440;fill-opacity:1;fill-rule:nonzero;stroke:none"
       transform="scale(1.3333333)" />
    <path
       id="path13"
       d="m 428.977,119.422 -0.043,0.848 -14.145,-0.036 c 0.27,3.547 2.25,5.743 6,5.743 2.578,0 4.234,-1.079 5.008,-3.434 l 2.699,1.395 c -1.152,2.73 -3.434,4.925 -7.828,4.925 -6.594,0 -9.098,-4.886 -9.098,-9.476 0,-4.59 2.43,-9.407 8.91,-9.407 6.301,0 8.723,4.59 8.497,9.442 z m -14.032,-2 10.672,0.035 c -0.226,-3.156 -2.195,-4.59 -5.086,-4.59 -3.179,0 -5.047,1.742 -5.586,4.555 z m 6.75,-11.297 h -3.047 l 2.625,-6.555 h 3.43 z"
       style="fill:#2e3440;fill-opacity:1;fill-rule:nonzero;stroke:none"
       transform="scale(1.3333333)" />
    <path
       id="path14"
       d="m 451.801,123.891 c -1.117,3.203 -3.242,4.972 -6.75,4.972 -4.246,0 -6.75,-2.578 -6.75,-6.972 v -8.633 h -4.852 v -2.895 h 4.903 v -6.472 h 3.203 v 6.472 h 9.367 v 2.895 h -9.375 v 8.129 c 0,1.5 0,4.59 3.547,4.59 2.508,0 3.234,-1.5 4.008,-3.434 z"
       style="fill:#2e3440;fill-opacity:1;fill-rule:nonzero;stroke:none"
       transform="scale(1.3333333)" />
    <path
       id="path15"
       d="m 473.535,117.457 -0.047,11.027 h -3.191 v -11.027 c 0,-0.922 0,-4.59 -4.164,-4.59 -4.703,0 -5.012,4.629 -5.012,7.403 v 8.214 h -3.199 v -27 h 3.199 l -0.117,11.797 c 1.117,-2.101 3.328,-3.386 5.707,-3.316 4.125,0.015 6.824,3.058 6.824,7.492 z"
       style="fill:#2e3440;fill-opacity:1;fill-rule:nonzero;stroke:none"
       transform="scale(1.3333333)" />
    <path
       id="path16"
       d="m 479.953,119.227 c 0,-4.43 2.508,-9.247 8.598,-9.247 6.09,0 8.594,4.817 8.594,9.247 0,4.824 -2.497,9.636 -8.594,9.636 -6.098,0 -8.598,-4.804 -8.598,-9.636 z m 13.996,0 c 0,-3.856 -1.926,-6.36 -5.398,-6.36 -3.473,0 -5.395,2.504 -5.395,6.36 0,4.246 1.93,6.75 5.395,6.75 3.465,0 5.398,-2.504 5.398,-6.75 z"
       style="fill:#2e3440;fill-opacity:1;fill-rule:nonzero;stroke:none"
       transform="scale(1.3333333)" />
    <path
       id="path17"
       d="m 520.102,101.496 v 27 h -1.965 l -1.305,-2.121 c -1.371,1.687 -3.461,2.617 -5.633,2.504 -5.937,0 -8.285,-5.121 -8.285,-9.441 0,-4.321 2.348,-9.442 8.285,-9.442 2.266,-0.117 4.446,0.895 5.821,2.699 l -0.114,-11.183 z m -2.774,17.731 c 0,-3.856 -2.469,-6.36 -5.859,-6.36 -3.391,0 -5.356,2.551 -5.356,6.555 0,4.004 1.965,6.555 5.356,6.555 3.39,0 5.82,-2.504 5.82,-6.75 z"
       style="fill:#2e3440;fill-opacity:1;fill-rule:nonzero;stroke:none"
       transform="scale(1.3333333)" />
    <path
       id="path18"
       d="m 543.586,119.422 v 0.848 l -14.152,-0.036 c 0.269,3.547 2.25,5.743 6,5.743 2.586,0 4.242,-1.079 5.007,-3.434 l 2.7,1.395 c -1.153,2.73 -3.426,4.925 -7.821,4.925 -6.593,0 -9.097,-4.886 -9.097,-9.476 0,-4.59 2.422,-9.407 8.902,-9.407 6.262,0 8.691,4.59 8.461,9.442 z m -14.035,-2 10.683,0.035 c -0.234,-3.156 -2.199,-4.59 -5.093,-4.59 -3.196,0 -5.047,1.742 -5.59,4.555 z"
       style="fill:#2e3440;fill-opacity:1;fill-rule:nonzero;stroke:none"
       transform="scale(1.3333333)" />
    <path
       id="path19"
       d="m 552.016,122.559 c 0.968,2.121 2.007,3.433 5.632,3.433 2.04,0 3.809,-0.426 3.809,-2.586 0,-1.965 -1.5,-2.117 -4.238,-2.656 -3.391,-0.66 -6.824,-1.547 -6.824,-5.363 0,-3.586 3,-5.391 6.75,-5.391 3.894,0 6.433,1.965 7.5,4.934 l -2.7,1.386 c -0.75,-1.851 -1.769,-3.433 -4.898,-3.433 -2,0 -3.426,0.66 -3.426,2.504 0,1.386 0.75,1.816 3.66,2.394 3.352,0.653 7.403,1.313 7.403,5.625 0,3.899 -3.204,5.473 -7.442,5.473 -4.012,0 -6.75,-1.965 -7.906,-4.926 z"
       style="fill:#2e3440;fill-opacity:1;fill-rule:nonzero;stroke:none"
       transform="scale(1.3333333)" />
    <path
       id="path20"
       d="m 392.047,152.648 v 8.75 h 11.648 v 3 h -11.648 v 12.293 h -3.27 v -27 h 16.844 v 3 z"
       style="fill:#2e3440;fill-opacity:1;fill-rule:nonzero;stroke:none"
       transform="scale(1.3333333)" />
    <path
       id="path21"
       d="m 409.492,167.414 c 0,-4.43 2.504,-9.254 8.602,-9.254 6.097,0 8.597,4.824 8.597,9.254 0,4.816 -2.507,9.637 -8.597,9.637 -6.09,0 -8.602,-4.821 -8.602,-9.637 z m 13.996,0 c 0,-3.855 -1.929,-6.359 -5.394,-6.359 -3.465,0 -5.399,2.504 -5.399,6.359 0,4.238 1.926,6.75 5.399,6.75 3.472,0 5.394,-2.512 5.394,-6.75 z"
       style="fill:#2e3440;fill-opacity:1;fill-rule:nonzero;stroke:none"
       transform="scale(1.3333333)" />
    <path
       id="path22"
       d="m 449.648,163.094 -2.738,1.277 c -0.922,-2.355 -1.734,-3.316 -3.75,-3.316 -4.281,0 -4.972,4.273 -4.972,7.441 v 5.25 h 3.75 v 2.887 h -10.403 v -2.887 h 3.426 v -12.308 h -3.043 v -2.879 h 5.008 l 1.5,2.382 c 1.058,-1.75 2.969,-2.804 5.012,-2.773 2.624,-0.008 4.906,1.379 6.21,4.926 z"
       style="fill:#2e3440;fill-opacity:1;fill-rule:nonzero;stroke:none"
       transform="scale(1.3333333)" />
    <path
       id="path23"
       d="m 474.594,166.297 v 10.5 h -3.203 v -10.5 c 0,-2.086 0,-5.25 -2.25,-5.25 -1.77,0 -3.121,1.965 -3.121,7.402 v 8.207 h -3.129 l -0.075,-10.5 c 0,-2.582 -0.195,-5.25 -2.25,-5.25 -1.777,0 -3.117,1.965 -3.117,7.403 v 8.324 h -3.09 v -18.074 h 1.969 l 1.035,1.656 c 0.766,-1.313 2.188,-2.098 3.707,-2.047 2.25,0 3.508,1.387 4.2,3.082 0.808,-1.734 2.199,-3.082 4.5,-3.082 4.98,-0.008 4.824,5.773 4.824,8.129 z"
       style="fill:#2e3440;fill-opacity:1;fill-rule:nonzero;stroke:none"
       transform="scale(1.3333333)" />
    <path
       id="path24"
       d="m 497.242,167.602 v 0.855 l -14.152,-0.043 c 0.269,3.547 2.25,5.742 6,5.742 2.582,0 4.246,-1.078 5.012,-3.426 l 2.699,1.387 c -1.156,2.738 -3.43,4.934 -7.824,4.934 -6.59,0 -9.098,-4.895 -9.098,-9.485 0,-4.589 2.422,-9.406 8.902,-9.406 6.266,0 8.696,4.59 8.461,9.442 z m -14.031,-2 10.68,0.035 c -0.235,-3.157 -2.2,-4.582 -5.094,-4.582 -3.195,0 -5.047,1.734 -5.586,4.547 z"
       style="fill:#2e3440;fill-opacity:1;fill-rule:nonzero;stroke:none"
       transform="scale(1.3333333)" />
    <path
       id="path25"
       d="m 518.871,173.773 v 2.891 h -16.266 v -2.891 h 6.555 v -21.199 h -5.363 v -2.898 h 8.558 v 24.086 z"
       style="fill:#2e3440;fill-opacity:1;fill-rule:nonzero;stroke:none"
       transform="scale(1.3333333)" />
    <path
       id="path26"
       d="m 541.32,173.773 v 2.891 h -16.269 v -2.891 h 6.551 l -0.04,-21.214 h -5.355 v -2.895 h 8.559 v 24.098 z"
       style="fill:#2e3440;fill-opacity:1;fill-rule:nonzero;stroke:none"
       transform="scale(1.3333333)" />
    <path
       id="path27"
       d="m 563.871,167.602 -0.035,0.855 -14.152,-0.043 c 0.269,3.547 2.25,5.742 6,5.742 2.578,0 4.238,-1.078 5.007,-3.426 l 2.7,1.387 c -1.153,2.738 -3.434,4.934 -7.829,4.934 -6.593,0 -9.097,-4.895 -9.097,-9.485 0,-4.589 2.43,-9.406 8.91,-9.406 6.301,0 8.73,4.59 8.496,9.442 z m -14.031,-2 10.68,0.035 c -0.231,-3.157 -2.196,-4.582 -5.094,-4.582 -3.192,0 -5.047,1.734 -5.586,4.547 z"
       style="fill:#2e3440;fill-opacity:1;fill-rule:nonzero;stroke:none"
       transform="scale(1.3333333)" />
    <path
       id="path28"
       d="m 572.301,170.73 c 0.969,2.122 2.004,3.426 5.625,3.426 2.051,0 3.82,-0.418 3.82,-2.578 0,-1.965 -1.5,-2.125 -4.238,-2.664 -3.391,-0.652 -6.824,-1.535 -6.824,-5.355 0,-3.582 3,-5.399 6.711,-5.399 3.894,0 6.433,1.965 7.5,4.934 l -2.7,1.39 c -0.75,-1.855 -1.777,-3.429 -4.898,-3.429 -2,0 -3.426,0.652 -3.426,2.504 0,1.39 0.75,1.808 3.66,2.386 3.352,0.66 7.403,1.313 7.403,5.633 0,3.891 -3.204,5.473 -7.442,5.473 -4.012,0 -6.75,-1.965 -7.906,-4.934 z"
       style="fill:#2e3440;fill-opacity:1;fill-rule:nonzero;stroke:none"
       transform="scale(1.3333333)" />
    <path
       id="path29"
       d="m 231.277,114.434 h 102.789 v 2.41 H 231.277 Z"
       style="fill:#2e3440;fill-opacity:1;fill-rule:nonzero;stroke:none"
       transform="scale(1.3333333)" />
    <path
       id="path30"
       d="M 684.988,15.254 V 216.016 H 336.473 V 15.254 h 348.515 m 2.418,-2.406 H 334.102 V 218.422 H 687.441 V 12.848 Z"
       style="fill:#2e3440;fill-opacity:1;fill-rule:nonzero;stroke:none"
       transform="scale(1.3333333)" />
    <path
       id="path31"
       d="M 44.969,89.941 H 28.914 v 51.395 h 48.18 V 126.074 H 44.969 Z"
       style="fill:#2e3440;fill-opacity:1;fill-rule:nonzero;stroke:none"
       transform="scale(1.3333333)" />
    <path
       id="path32"
       d="m 173.461,89.941 h -16.066 v 51.395 h 16.066 v -36.141 h 35.332 V 89.941 Z"
       style="fill:#2e3440;fill-opacity:1;fill-rule:nonzero;stroke:none"
       transform="scale(1.3333333)" />
    <path
       id="path33"
       d="m 199.824,122.062 c 0,5.325 -4.316,9.637 -9.64,9.637 -5.321,0 -9.637,-4.312 -9.637,-9.637 0,-5.324 4.316,-9.636 9.637,-9.636 5.324,0 9.64,4.312 9.64,9.636 z"
       style="fill:#2e3440;fill-opacity:1;fill-rule:nonzero;stroke:none"
       transform="scale(1.3333333)" />
    <path
       id="path34"
       d="m 131.699,92.941 -15.953,27.621 -16.168,-28.003 -1.5,-2.618 H 83.527 v 51.368 h 16.051 v -12.633 c 0,-5 -1.644,-13.039 -1.644,-13.039 l 9.511,19.316 1.801,3.121 h 12.914 l 1.844,-3.215 9.301,-19.05 c 0,0 -1.606,7.89 -1.606,12.687 v 12.813 h 16.059 V 89.941 h -14.324 z"
       style="fill:#2e3440;fill-opacity:1;fill-rule:nonzero;stroke:none"
       transform="scale(1.3333333)" />
    <path
       id="path35"
       d="M 115.637,0 C 68.867,0.004 26.703,28.18 8.809,71.387 c -17.899,43.211 -8,92.949 25.07,126.015 33.07,33.071 82.809,42.965 126.016,25.067 43.21,-17.899 71.382,-60.063 71.382,-106.832 0,-30.672 -12.183,-60.086 -33.871,-81.77 C 175.719,12.18 146.305,-0.004 115.637,0 Z m 0,228.93 C 53.168,228.93 2.34,178.102 2.34,115.637 2.34,53.168 53.168,2.34 115.637,2.34 c 62.465,0 113.293,50.828 113.293,113.297 0,62.465 -50.828,113.293 -113.293,113.293 z"
       style="fill:#2e3440;fill-opacity:1;fill-rule:nonzero;stroke:none"
       transform="scale(1.3333333)" />
  </g>
</svg>
